<svg xmlns="http://www.w3.org/2000/svg" viewBox="0 0 76.93 64.97"><defs><style>.cls-1{fill:#00447d;}.cls-2{fill:#fcce0f;}</style></defs><title>ic_guarantee@1x</title><g id="Layer_2" data-name="Layer 2"><g id="Layer_1-2" data-name="Layer 1"><path class="cls-1" d="M34.34,43.9c1.68,0,3.37,0,5.05,0,1.43,0,2.86,0,4.27.09,1.74.09,3.46.18,5.19.34,2.1.21,4.21.49,6.3.75a105.36,105.36,0,0,1,11.6,2.23,5.37,5.37,0,0,1,1.07.41,1.35,1.35,0,0,1,.87,1.7l-.06.14c-1,2.8-2,5.59-3,8.38a1,1,0,0,1-.05.16c-.5.94-.66,1-1.74.76-2.4-.52-4.8-1.05-7.21-1.51-1.84-.34-3.68-.62-5.53-.85-1.62-.2-3.25-.33-4.88-.43-2-.12-4-.18-5.94-.26-.92,0-1.84-.09-2.76-.07-1.65,0-3.31.07-5,.17s-3.49.21-5.23.43c-2.34.28-4.67.6-7,1-2.65.49-5.29,1.1-7.92,1.67a.62.62,0,0,1-.72-.39,12,12,0,0,1-.85-1.78c-.83-2.35-1.62-4.71-2.41-7.07-.39-1.16,0-1.92,1.31-2.3s2.77-.74,4.18-1c2.31-.46,4.64-.9,7-1.27,1.68-.27,3.37-.45,5.06-.62s3.45-.3,5.18-.43c1.06-.09,2.12-.13,3.18-.2v-.05Zm8.45,4.65h-.09c-.15-.56-.28-1.12-.42-1.68-.24-1-.23-1-1.27-1-.47,0-.56.17-.56.57,0,1.55,0,3.09,0,4.64,0,.14,0,.28,0,.42,0,.59,0,1.18,0,1.79l1.32.09c.05-1,.09-1.91.15-2.85.27.83.45,1.67.66,2.51a.52.52,0,0,0,.26.36c.44.06.9.06,1.37.08.14-2.5.27-5,.42-7.5H42.92c0,.85-.09,1.74-.13,2.63Zm14.69-1.1c-.05.23-.09.38-.12.53q-.6,3.23-1.21,6.46a.32.32,0,0,0,.17.41l.13,0,2.47.44a.94.94,0,0,0,1.3-.87q.59-2.57,1.19-5.15a.9.9,0,0,0-.82-1.24c-.35-.07-.69-.17-1-.23ZM30.65,46.11l.61,7.45,1.51-.09c-.05-.85-.09-1.62-.14-2.39l.13,0a2.43,2.43,0,0,1,.21.38c.22.56.42,1.13.65,1.69a.5.5,0,0,0,.28.3c.45,0,.9-.06,1.38-.1L34.39,51a.63.63,0,0,0,.62-.77c0-1.12-.05-2.24-.09-3.36a.91.91,0,0,0-.86-1h-.15C32.85,46,31.79,46,30.65,46.11Zm-9.77,1.23c0,.18,0,.33,0,.48q.19,1.1.39,2.19L22,53.72a.95.95,0,0,0,1.29.81c.52-.07,1-.13,1.56-.24.68-.14,1.16-.17,1.07-1.2,0-.41-.07-.81-.12-1.22-.13-1-.27-1.94-.4-2.92-.09-.69-.17-1.39-.27-2.08a.26.26,0,0,0-.19-.16c-.51.07-1,.15-1.53.24.15,1,.28,2,.43,2.91s.26,1.68.42,2.52c.12.64,0,.74-.74.69l-1-6Zm-.93,1.59a10.69,10.69,0,0,1-.43-1,.33.33,0,0,0-.38-.27l-.08,0-2,.41a.88.88,0,0,0-.8,1.19l1.2,5.28a.92.92,0,0,0,1.25.8c.52-.09,1-.17,1.55-.27l1.26-.27-.79-4.21-1.54.28.57,2.9-.79.13c0-.16-.09-.28-.12-.4-.26-1.23-.49-2.47-.8-3.7-.11-.46.08-.54.43-.6ZM30.75,53.6a.5.5,0,0,0,0-.13q-1-3.5-2-7a.31.31,0,0,0-.25-.15c-.51,0-1,.11-1.59.18-.17,2.51-.34,5-.51,7.59l1.61-.2v-.92a2,2,0,0,1,1,0,1.76,1.76,0,0,1,.34.83Zm7.8-7.75c-.54,0-1,0-1.49,0a.42.42,0,0,0-.32.23c-.12.52-.19,1-.27,1.57-.23,1.34-.45,2.69-.68,4-.09.53-.15,1.07-.22,1.66l1.48-.11c.06-.3.11-.59.17-.92a2.15,2.15,0,0,1,1,.08,1.7,1.7,0,0,1,.26.85h1.5C39.49,50.77,39,48.31,38.55,45.85Zm18.1,1.45-3.21-.5c-.36,2.48-.71,4.92-1.06,7.39.93.16,1.8.31,2.67.44a.36.36,0,0,0,.3-.16c.16-.36.28-.74.44-1.15l-1.6-.27c.09-.54.17-1.05.26-1.6l.5.11c.73.14.73.14.89-.56.05-.2.07-.4.1-.6l-1.29-.24c.1-.61.19-1.16.28-1.71l1.73.26V47.3Zm-4.05-.62-3.21-.36c-.26,2.53-.5,5-.76,7.42l2.91.34c.15-.41.29-.85.46-1.34l-.8-.1-.79-.13c0-.36.09-.71.11-1.05,0-.51.12-.59.62-.5.25,0,.5.06.74.09L52,49.81l-1.3-.17c.08-.59.15-1.17.21-1.74l1.75.21c0-.48-.07-.92-.1-1.42Zm-6.54.77c-.15,2.06-.28,4-.43,6l1.25.12a.28.28,0,0,0,.35-.31c.1-1.36.22-2.71.34-4.07.05-.56.12-1.11.17-1.65l1.07.07a10.15,10.15,0,0,0-.22-1.11.51.51,0,0,0-.33-.33c-.82-.09-1.65-.15-2.48-.2a.42.42,0,0,0-.33.17c-.18.38-.31.77-.46,1.17ZM66.2,52.54a1.55,1.55,0,0,1-1.62-1.77c-.24.32-.37.5-.51.68a.72.72,0,0,1-.89.39,2.29,2.29,0,0,0-.74,0l-.1.07a1.42,1.42,0,0,1,.43,2l-.12.16a.22.22,0,0,0,0,.09l.15-.05c.64-.22,1.28-.43,1.76.3a1.23,1.23,0,0,0,.31.2A3,3,0,0,1,65,53.32a3.94,3.94,0,0,1,1.17-.78ZM15.15,51.47l-.3,0A1.42,1.42,0,0,1,13,51.07a1.49,1.49,0,0,0-.24-.2l-.14,1.23-1.2.65a3.49,3.49,0,0,1,1.18.59,2.91,2.91,0,0,1,.3,1.17l.1.09c.41-1,1.17-1.08,2.11-.82a1.52,1.52,0,0,1,0-2.33Zm5.93,6.28s.64-.08.82-.13a2.56,2.56,0,0,1,2.38.47,25.79,25.79,0,0,0,7.44,2.84,32.59,32.59,0,0,0,4.64.68,33.25,33.25,0,0,0,5.13,0A29,29,0,0,0,53.25,58a1.28,1.28,0,0,0,.25-.16c.58-.52,1.24-.24,1.86-.16s1.45.26,2.17.41l6.23,1.33.74.19a1.09,1.09,0,0,0,1.26-.73c.5-1.1,1-2.22,1.37-3.35.59-1.66,1.12-3.33,1.71-5.1l8.09,2.54a.7.7,0,0,1,0,.13l-6.51,3.82c.83,2.49,1.65,5,2.5,7.49a101.55,101.55,0,0,0-17.37-4.51,8.2,8.2,0,0,1-.53.7,1,1,0,0,1-1,.3,1.33,1.33,0,0,0-1.53.7,1.21,1.21,0,0,1-1.58.68h0a1.28,1.28,0,0,0-1.38.5,1.32,1.32,0,0,1-1.76.59,1.31,1.31,0,0,0-1.48.46,1.2,1.2,0,0,1-1.56.38,1.44,1.44,0,0,0-1.79.31,1.26,1.26,0,0,1-1.58.14,1.28,1.28,0,0,0-1.58.07,1.36,1.36,0,0,1-1.73,0,1.3,1.3,0,0,0-1.66,0,1.25,1.25,0,0,1-1.61-.15,1.36,1.36,0,0,0-1.65-.25,1.25,1.25,0,0,1-1.66-.3,1.4,1.4,0,0,0-1.66-.38,1.27,1.27,0,0,1-1.54-.48,1.3,1.3,0,0,0-1.52-.54,1.21,1.21,0,0,1-1.53-.62,1.38,1.38,0,0,0-1.59-.67,1.3,1.3,0,0,1-1.34-.7.83.83,0,0,0-1.2-.65,84.49,84.49,0,0,0-9.78,2.18c-2.39.7-4.76,1.48-7.13,2.23l-.07,0,1.52-4.54c.28-.85.55-1.7.85-2.54a.37.37,0,0,0-.14-.5l-.07,0L.12,53.09,0,53l0-.1c1.49-.49,3-1,4.46-1.46,1.08-.34,2.18-.62,3.26-1,.31-.1.41,0,.51.26C9,53,9.73,55.14,10.51,57.29a10.74,10.74,0,0,0,1,1.85.85.85,0,0,0,1.1.38L19.69,58c.48-.1,1-.16,1.38-.22Zm36.82-4c.32-1.57.62-3.11.95-4.69l.9.18c-.09.46-.17.89-.27,1.33-.19.91-.38,1.82-.57,2.74-.16.74-.26.8-1,.46ZM32.4,47.31h1c0,.77.09,1.51.1,2.25a.43.43,0,0,1-.28.26,3,3,0,0,1-.64,0c0-.83-.1-1.65-.14-2.53Zm-3.63,4.36-.69.05V49.37l.11,0Zm9.34-.56h-.74c.1-.8.2-1.57.29-2.34l.09,0c.11.78.23,1.56.35,2.36Z"/><path class="cls-2" d="M50.05,24.85a9.62,9.62,0,0,1-1.17,5A4.56,4.56,0,0,1,45.52,32a5.74,5.74,0,0,1-3-.31A5.13,5.13,0,0,1,39.43,28a9.89,9.89,0,0,1-.37-3.16,7.68,7.68,0,0,1,1.79-4.92,4.82,4.82,0,0,1,2.84-1.51,5.2,5.2,0,0,1,4.07.94,4.92,4.92,0,0,1,1.85,2.9c.24,1,.34,2,.44,2.6Zm-4,.43c0-.25,0-.58,0-.91a7.43,7.43,0,0,0-.18-1A3.13,3.13,0,0,0,45,21.63a.72.72,0,0,0-1,0h0a2.33,2.33,0,0,0-.42.57,7.09,7.09,0,0,0-.36,5.1A3.19,3.19,0,0,0,44,28.86a.77.77,0,0,0,1.09.09l.11-.12a2.78,2.78,0,0,0,.42-.7,6.3,6.3,0,0,0,.45-2.83Zm-18.43.39a9.4,9.4,0,0,1,.7-4.11A5,5,0,0,1,32,18.46a5.1,5.1,0,0,1,4.92,1.45,5.35,5.35,0,0,1,1.28,2.49,11.75,11.75,0,0,1,.29,4,7.19,7.19,0,0,1-1.36,3.88,4.54,4.54,0,0,1-3,1.72,5.57,5.57,0,0,1-3.35-.42,5.2,5.2,0,0,1-2.7-3.29,9.54,9.54,0,0,1-.42-2.63Zm7-.54c0-.28,0-.73-.1-1.18a4.11,4.11,0,0,0-.68-2c-.51-.71-1.11-.83-1.65,0a4.08,4.08,0,0,0-.44.91,7.43,7.43,0,0,0-.23,3.64,4.7,4.7,0,0,0,.74,2c.57.79,1.23.76,1.72-.08l.09-.2a7.19,7.19,0,0,0,.54-3.14ZM25,29.35h1.76v2.47H19.24V29.37h1.59a.25.25,0,0,0,.31-.3c0-2.22,0-4.43,0-6.74l-1.92.88-.89-2.1.62-.31A6.89,6.89,0,0,0,21.29,19a1.1,1.1,0,0,1,1-.41c.92,0,1.84,0,2.8,0V29.36Zm34.09-9.68-.68,2.1c-1,3-2,6.05-3,9.07-.33,1-.34,1-1.4,1H52.95c.25-.78.49-1.53.74-2.28,1-3.13,2-6.26,3-9.4a.58.58,0,0,1,.65-.52h.06c.54,0,1.09,0,1.69,0Zm-.39,13.82c.21.81.42,1.61.63,2.41h.08V33.48h1.6v7.44H59.47l-.67-2.63h-.07v2.63H57.28V33.49h1.46Zm-2.14,3.71c0,.89,0,1.79,0,2.68a.94.94,0,0,1-1.08,1.06c-.58,0-1.15,0-1.72,0a1,1,0,0,1-1.11-1q0-2.74,0-5.48a.89.89,0,0,1,1-1c.64,0,1.28,0,1.92,0a.83.83,0,0,1,1,.94c0,.94,0,1.87,0,2.8Zm-2.36-2.37c0,.13,0,.23,0,.33,0,1.36,0,2.72,0,4.08,0,.34.14.42.46.43s.39-.18.39-.44c0-1.35,0-2.69,0-4,0-.12,0-.24,0-.36h-.77ZM38.38,40.91c.2-1.11.39-2.19.59-3.26.13-.74.27-1.47.4-2.21.1-.58.19-1.15.31-1.73a.37.37,0,0,1,.27-.25c.47,0,.94,0,1.45,0,.46,2.49.9,5,1.36,7.45H41.23c0-.11-.06-.23-.08-.35C41,40,41,40,40.45,40H40.1c-.05.29-.11.57-.17.88H38.38Zm2.48-2.16c-.08-.72-.16-1.4-.24-2.08h-.09c-.08.69-.17,1.38-.27,2.09h.6ZM25.75,40.92H24.26a2.81,2.81,0,0,1-.12-.35c-.1-.54-.1-.54-.65-.54h-.41l-.16.87H21.41c.46-2.48.9-4.95,1.35-7.45.48,0,.95,0,1.42,0a.37.37,0,0,1,.25.24c.25,1.37.47,2.74.72,4.1.18,1,.39,2.06.6,3.11Zm-1.83-2.16-.32-2.3h-.08l-.29,2.3h.69Zm7.9,2.14-.25-1.38c.52,0,1,0,1.43,0a.29.29,0,0,0,.37-.37c0-.35,0-.71,0-1.06a.25.25,0,0,0-.19-.29h-.11l-.92,0a.61.61,0,0,1-.68-.65q0-1.52.05-3a.7.7,0,0,1,.69-.63c.79,0,1.59,0,2.41,0,.08.46.16.9.24,1.39-.55,0-1,0-1.54,0a.29.29,0,0,0-.36.35,8.83,8.83,0,0,1,0,1,.33.33,0,0,0,.25.39h.13c.28,0,.57,0,.85,0a.64.64,0,0,1,.7.71v2.64a.92.92,0,0,1-1.06,1c-.62,0-1.25,0-1.88,0l-.15,0ZM18,40.93l-.27-1.4c.51,0,1,0,1.45,0a.29.29,0,0,0,.36-.34c0-.35,0-.71,0-1.06a.28.28,0,0,0-.22-.33h-.13a8.9,8.9,0,0,1-1,0,.6.6,0,0,1-.61-.6s0,0,0,0c0-1,0-1.91,0-2.87a.8.8,0,0,1,.8-.8h2.3L21,34.84c-.51,0-1,0-1.49,0a.35.35,0,0,0-.44.44c0,.29,0,.58,0,.87a.37.37,0,0,0,.32.42h.94a.59.59,0,0,1,.67.68V40a.83.83,0,0,1-.72.93H18Zm19-6.1V36.6h1.21v1.28H37v3H35.46V33.48h3c.08.42.16.86.24,1.35H37Zm9.22,0c-.46,0-.86,0-1.27,0a.27.27,0,0,0-.33.33q0,2,0,4c0,.28.11.34.36.33s.79,0,1.24,0c-.09.46-.16.87-.26,1.27a.36.36,0,0,1-.27.13c-.58,0-1.18,0-1.77,0a.8.8,0,0,1-.83-.77s0,0,0,0q0-3,0-6a.71.71,0,0,1,.71-.7c.64,0,1.28,0,1.92,0a.35.35,0,0,1,.27.13c.09.41.15.8.23,1.26ZM60.7,29.42a7.07,7.07,0,0,1-.3,1.3,1.92,1.92,0,0,1-2,1.13,2,2,0,0,1-1.74-1.61,3.72,3.72,0,0,1,.22-2.52,1.89,1.89,0,0,1,1.93-1.06,2,2,0,0,1,1.74,1.56c.07.35.09.72.15,1.22Zm-1.48-.16c-.09-.35-.17-.76-.3-1.14a.5.5,0,0,0-.36-.27.45.45,0,0,0-.33.24,2.65,2.65,0,0,0,0,2.32.53.53,0,0,0,.39.28.58.58,0,0,0,.34-.36c.09-.33.13-.67.21-1.07Zm-3.72-7a2.76,2.76,0,0,1-.82,2.15A2,2,0,0,1,51.87,24l-.05-.07a3.35,3.35,0,0,1-.24-3,1.91,1.91,0,0,1,2-1.34,1.89,1.89,0,0,1,1.77,1.55c.07.34.09.69.15,1Zm-1.43,0a8,8,0,0,0-.29-1.16c-.17-.42-.52-.43-.76-.06a2.54,2.54,0,0,0,.11,2.39c.29.36.51.35.67-.08a9.21,9.21,0,0,0,.26-1.09ZM27.81,40.91H26.25V34.84h-1l.37-1.37h2.84l.36,1.37h-.42c-.61,0-.61,0-.61.62v5.45Zm22-7.46.38,1.38h-.55c-.51,0-.51,0-.51.48v5.6H47.59V34.85h-1c.12-.46.23-.88.36-1.29a.32.32,0,0,1,.25-.1h2.6Zm-20.51,0h1.49v7.43H29.28V33.47Zm22.79,7.45H50.6V33.48h1.47v7.45Z"/><path class="cls-1" d="M5.71,33.88a1.2,1.2,0,0,0,.09,1.45A1.37,1.37,0,0,1,6,37.12a1,1,0,0,0,.19,1.35,1.51,1.51,0,0,1,.43,1.93A1.07,1.07,0,0,0,7,41.69a1.38,1.38,0,0,1,.63,1.7,1.17,1.17,0,0,0,.6,1.44,1.21,1.21,0,0,1,.23.18q2.28-.65,4.69-1.21a27.71,27.71,0,1,1,51.08-.62c-.08.18-.16.37-.25.55h0l0,.1,1,.24L65,44c1.16.26,2.32.52,3.45.82a1.41,1.41,0,0,1,.68-.84,1.1,1.1,0,0,0,.53-1.24,1.48,1.48,0,0,1,.56-1.94,1.19,1.19,0,0,0,.26-1.36,1.34,1.34,0,0,1,.33-1.71A1.25,1.25,0,0,0,71,36.19a1.33,1.33,0,0,1,.18-1.77A1.14,1.14,0,0,0,71.28,33a1.39,1.39,0,0,1,0-1.86,1.12,1.12,0,0,0-.08-1.41,1.4,1.4,0,0,1-.23-1.84,1.08,1.08,0,0,0-.21-1.39,1.4,1.4,0,0,1-.43-1.84,1.09,1.09,0,0,0-.46-1.4,1.35,1.35,0,0,1-.56-1.51,1.26,1.26,0,0,0-.62-1.62A1.24,1.24,0,0,1,68,18.85c.13-1,0-1.21-.84-1.7a1.45,1.45,0,0,1-.73-1.26v0a1.19,1.19,0,0,0-.87-1.44,1.32,1.32,0,0,1-1-1.37,1.13,1.13,0,0,0-.95-1.18,1.42,1.42,0,0,1-1.2-1.31,1.14,1.14,0,0,0-1.1-1.09,1.42,1.42,0,0,1-1.26-1.1,1.33,1.33,0,0,0-1.38-1.1,1.22,1.22,0,0,1-1.19-.81v0a1.35,1.35,0,0,0-1.6-1,1.28,1.28,0,0,1-1.24-.81,1.24,1.24,0,0,0-1.44-.8,1.34,1.34,0,0,1-1.51-.68,1.23,1.23,0,0,0-1.6-.61,1.32,1.32,0,0,1-1.48-.55,1.27,1.27,0,0,0-1.48-.53A1.49,1.49,0,0,1,45.32,1,1.23,1.23,0,0,0,43.86.71a1.38,1.38,0,0,1-1.8-.24A1.27,1.27,0,0,0,40.6.32a1.46,1.46,0,0,1-1.82,0,1.16,1.16,0,0,0-1.57,0,1.29,1.29,0,0,1-1.65.13,1.35,1.35,0,0,0-1.73.2,1.3,1.3,0,0,1-1.56.27,2.44,2.44,0,0,0-.52-.16,1.39,1.39,0,0,0-1.25.61A1.26,1.26,0,0,1,29,1.7a1.28,1.28,0,0,0-1.58.49,1.28,1.28,0,0,1-1.51.6,1.37,1.37,0,0,0-1.57.7,1.3,1.3,0,0,1-1.41.7,1.24,1.24,0,0,0-1.5.89,1.36,1.36,0,0,1-1.23.81l-.11,0A1.28,1.28,0,0,0,18.69,7a1.33,1.33,0,0,1-1.2.86A1.25,1.25,0,0,0,16.18,9a1.34,1.34,0,0,1-1.08,1.08,1.28,1.28,0,0,0-1.25,1.22,1.26,1.26,0,0,1-1.11,1.25,1.18,1.18,0,0,0-.91,1.25A1.34,1.34,0,0,1,11,15.14a1.25,1.25,0,0,0-1,1.47,1.38,1.38,0,0,1-.92,1.47,1.18,1.18,0,0,0-.62,1.28A1.32,1.32,0,0,1,7.85,21a1.16,1.16,0,0,0-.5,1.47,1.36,1.36,0,0,1-.45,1.6,1.18,1.18,0,0,0-.41,1.59,1.24,1.24,0,0,1-.29,1.57A1.26,1.26,0,0,0,6,28.87a1.38,1.38,0,0,1-.2,1.72A1.09,1.09,0,0,0,5.66,32,1.37,1.37,0,0,1,5.71,33.88Z"/></g></g></svg>