<svg xmlns="http://www.w3.org/2000/svg" viewBox="0 0 77 66.98"><defs><style>.cls-1{fill:#00447d;}.cls-2{fill:#fcce0f;}</style></defs><title>ic_response@1x</title><g id="Layer_2" data-name="Layer 2"><g id="Layer_1-2" data-name="Layer 1"><path class="cls-1" d="M66.28,39.55,51.16,34.77v0a5.06,5.06,0,1,0,0,9.52v0ZM45.41,7.05h.86v2a30.35,30.35,0,0,1,7.07.08V7.05h.86a1.14,1.14,0,0,0,1.14-1.14V1.14A1.14,1.14,0,0,0,54.2,0H45.41a1.14,1.14,0,0,0-1.14,1.14V5.92a1.14,1.14,0,0,0,1.14,1.13ZM71.88,18.57l2.69-3.43a2.31,2.31,0,0,0-.39-3.24h0l-2.32-1.81a2.32,2.32,0,0,0-3.26.4L66,13.74a30.86,30.86,0,0,1,5.84,4.83ZM49.5,67A27.5,27.5,0,1,1,77,39.48h0A27.5,27.5,0,0,1,49.5,67Zm0-50A22.5,22.5,0,1,0,72,39.48,22.5,22.5,0,0,0,49.5,17Z"/><path class="cls-2" d="M23.39,23.42H0l5.66,7.46H20A30.49,30.49,0,0,1,23.39,23.42Z"/><path class="cls-2" d="M18.79,39.55A30.8,30.8,0,0,1,19,35.82H4.84l5.66,7.46H19a30.82,30.82,0,0,1-.23-3.73Z"/><path class="cls-2" d="M20,48.22H0l5.66,7.46H23.39A30.46,30.46,0,0,1,20,48.22Z"/></g></g></svg>