<svg xmlns="http://www.w3.org/2000/svg" viewBox="0 0 70 72.92"><defs><style>.cls-1{fill:#fcce0f;}.cls-2{fill:none;}.cls-3{fill:#00447d;}</style></defs><title>ic_team@1x</title><g id="Layer_2" data-name="Layer 2"><g id="Layer_1-2" data-name="Layer 1"><path class="cls-1" d="M16.75,59.1H53.38A1.93,1.93,0,0,1,55.3,61V72.92a0,0,0,0,1,0,0H14.83a0,0,0,0,1,0,0V61A1.93,1.93,0,0,1,16.75,59.1Z"/><path class="cls-2" d="M47.49,30.5a17.41,17.41,0,0,0,2.33-4.35,14.19,14.19,0,0,0,.49-3.27l-.42-.07L47.4,26.93l-.29-.05c0-1.07.06-2.15,0-3.22a1.69,1.69,0,0,0-.67-1.19,22.4,22.4,0,0,0-22.59,0,1.67,1.67,0,0,0-.7,1.17c-.1,1.09,0,2.2,0,3.31l-.26,0-2.59-4.23-.48.17c.3,1.4.27,3,1,4.18,2.15,3.69,4,7.59,6.36,11.1a9.44,9.44,0,0,0,14,2.17,12,12,0,0,0,4.12-5.85A12.69,12.69,0,0,1,47.49,30.5Z"/><path class="cls-2" d="M27.39,42c-.11,3.81.89,6.88,4.07,8.87a6.49,6.49,0,0,0,7.64-.24c2.88-2,3.83-5,3.68-8.62C37.59,45.37,32.54,45.35,27.39,42Z"/><path class="cls-3" d="M44.81,40.34a7.13,7.13,0,0,1,.52-1.57c.59-1.23,1.22-2.46,1.87-3.66A23.5,23.5,0,0,1,49,32c2.14-2.81,3.55-5.85,3.17-9.46a3,3,0,0,0-.89-2.08,1.49,1.49,0,0,1-.78-1.6c0-2.14,0-4.27,0-6.41C50.37,6,47,2,40.71.6a48.82,48.82,0,0,0-9-.52c-.37,0-.71.24-1.07.29-6.27.83-9.83,4.16-10.66,10.38-.36,2.71-.19,5.49-.3,8.23a1.6,1.6,0,0,1-.42,1.17c-1.12.47-1.17,1.41-1.25,2.35-.34,3.9,1.2,7.11,3.66,10a7,7,0,0,1,.92,1.4A39.61,39.61,0,0,1,25,39a9.71,9.71,0,0,1,.3,4c0,.32-.44.65-.89.92v2.61a13.7,13.7,0,0,1,1-1c2.24,5.92,5.23,8.41,9.9,8.38,4.21,0,7.28-2.71,9.3-8.11a1.33,1.33,0,0,1,1.15.69V43.89A3.37,3.37,0,0,1,44.81,40.34ZM39.1,50.59a6.49,6.49,0,0,1-7.64.24c-3.18-2-4.18-5.06-4.07-8.87,5.15,3.39,10.2,3.4,15.39,0C42.93,45.61,42,48.55,39.1,50.59Zm2-10.24a9.44,9.44,0,0,1-14-2.17c-2.39-3.51-4.21-7.41-6.36-11.1-.69-1.18-.66-2.78-1-4.18l.48-.17L22.81,27l.26,0c0-1.11-.07-2.21,0-3.31a1.67,1.67,0,0,1,.7-1.17,22.4,22.4,0,0,1,22.59,0,1.69,1.69,0,0,1,.67,1.19c.1,1.07,0,2.15,0,3.22l.29.05,2.48-4.12.42.07a14.19,14.19,0,0,1-.49,3.27,17.41,17.41,0,0,1-2.33,4.35,12.69,12.69,0,0,0-2.28,4A12,12,0,0,1,41.09,40.34Z"/><path class="cls-3" d="M55.3,72.89H70a43.91,43.91,0,0,0-3.27-16.28,10.66,10.66,0,0,0-6.1-6c-2.56-1-5.07-2.16-7.58-3.29V50.6c3.08,1.36,6.13,2.54,9,4.08a7.26,7.26,0,0,1,2.5,3.17c2.19,4.39,2,7.14,2.36,12.11H55.3Z"/><path class="cls-3" d="M8.66,51a8,8,0,0,0-4.52,4.32,66.22,66.22,0,0,0-3,9A81.91,81.91,0,0,0,0,72.89H14.83v-3H3.33c.33-4.89.2-7.56,2.24-12a7.7,7.7,0,0,1,4.36-4.24c2.38-.9,4.7-2,7.18-3V47.29Q12.9,49.19,8.66,51Z"/><path class="cls-1" d="M23.62,44.35l-6.5,2.94v3.37l.16-.07V59.1h6.95c0-4.13,0-8.19.05-12.26a.57.57,0,0,1,.11-.3V43.94A8.14,8.14,0,0,1,23.62,44.35Z"/><path class="cls-1" d="M47.55,44.94a6.1,6.1,0,0,1-1.77-1.05V46.5a2.49,2.49,0,0,1,.2,1.15c-.06,3.78,0,7.57,0,11.45h6.93V50.53l.15.07V47.31C51.22,46.5,49.4,45.69,47.55,44.94Z"/></g></g></svg>