<svg xmlns="http://www.w3.org/2000/svg" viewBox="0 0 71.96 60.77"><defs><style>.cls-1{fill:#231f20;}</style></defs><title>ic_logo@1x</title><g id="Layer_2" data-name="Layer 2"><g id="Layer_1-2" data-name="Layer 1"><polygon class="cls-1" points="19.72 37.47 13.78 37.47 13.78 34.04 9.29 34.04 9.29 41.96 12.48 41.96 13.78 41.96 19.72 41.96 20.4 41.96 24.21 41.96 24.21 23.84 19.72 23.84 19.72 37.47"/><polygon class="cls-1" points="36.55 23.84 26.5 23.84 26.5 28.33 36.55 28.33 36.55 37.47 31 37.47 31 34.95 34.11 34.95 34.11 30.46 31 30.46 27.11 30.46 26.5 30.46 26.5 41.96 27.11 41.96 31 41.96 36.55 41.96 38.79 41.96 41.04 41.96 41.04 23.84 38.19 23.84 36.55 23.84"/><rect class="cls-1" x="43.48" y="20.77" width="4.49" height="21.19"/><polygon class="cls-1" points="60.53 37.47 54.9 37.47 54.9 28.33 58.1 28.33 58.1 23.84 54.9 23.84 51.1 23.84 50.41 23.84 50.41 41.96 51.72 41.96 54.9 41.96 60.53 41.96 63.4 41.96 65.03 41.96 65.03 20.77 60.53 20.77 60.53 37.47"/><rect class="cls-1" x="67.46" y="25.06" width="4.49" height="16.9"/><rect class="cls-1" x="67.46" y="20.77" width="4.49" height="2.43"/><polygon class="cls-1" points="71.92 60.77 0 60.77 0 0 71.92 0 71.92 16.65 67.5 16.65 67.5 4.42 4.42 4.42 4.42 56.34 67.5 56.34 67.5 47.13 71.92 47.13 71.92 60.77"/></g></g></svg>